<svg width="479" height="423" viewBox="0 0 479 423" fill="none" xmlns="http://www.w3.org/2000/svg">
<path d="M239.414 255.402C263.876 255.402 283.706 235.612 283.706 211.2C283.706 186.788 263.876 166.998 239.414 166.998C214.953 166.998 195.123 186.788 195.123 211.2C195.123 235.612 214.953 255.402 239.414 255.402Z" fill="#303F9F"/>
<path fill-rule="evenodd" clip-rule="evenodd" d="M239.415 121.328C298.883 121.328 354.126 129.843 395.78 144.154C445.966 161.397 476.823 187.534 476.823 211.2C476.823 235.862 444.121 263.628 390.227 281.448C349.482 294.92 295.865 301.953 239.415 301.953C181.539 301.953 126.733 295.352 85.5293 281.3C33.3987 263.518 2 235.392 2 211.2C2 187.726 31.4617 161.791 80.9427 144.575C122.752 130.028 179.359 121.328 239.407 121.328H239.415Z" stroke="#303F9F" stroke-width="2.73408"/>
<path fill-rule="evenodd" clip-rule="evenodd" d="M161.021 166.522C190.73 115.112 225.718 71.6068 258.95 42.7455C298.988 7.97203 337.091 -5.64626 357.633 6.17546C379.041 18.4959 386.805 60.6398 375.35 116.133C366.697 158.089 346.008 207.954 317.807 256.757C288.893 306.793 255.785 350.876 223.006 379.469C181.528 415.654 141.428 428.749 120.429 416.663C100.052 404.945 92.2595 366.511 102.035 315.131C110.294 271.72 131.021 218.435 161.011 166.522L161.021 166.522Z" stroke="#303F9F" stroke-width="2.73408"/>
<path fill-rule="evenodd" clip-rule="evenodd" d="M161.095 256.888C131.302 205.536 111.018 153.546 102.551 110.401C92.3592 58.4159 99.5653 18.6695 120.089 6.81337C141.476 -5.54317 181.939 8.79056 224.392 46.41C256.49 74.8519 289.45 117.635 317.733 166.392C346.73 216.379 368.463 267.022 376.918 309.643C387.616 363.578 378.957 404.788 357.977 416.908C337.621 428.669 300.369 416.217 260.649 382.105C227.088 353.284 191.182 308.75 161.095 256.887V256.888Z" stroke="#303F9F" stroke-width="2.73408"/>
</svg>
