<?xml version="1.0" encoding="utf-8"?>
<!-- Generator: Adobe Illustrator 24.2.3, SVG Export Plug-In . SVG Version: 6.00 Build 0)  -->
<svg version="1.1" id="Layer_1" xmlns:sketch="http://www.bohemiancoding.com/sketch/ns"
	 xmlns="http://www.w3.org/2000/svg" xmlns:xlink="http://www.w3.org/1999/xlink" x="0px" y="0px" viewBox="0 0 30.5 30.5"
	 style="enable-background:new 0 0 30.5 30.5;" xml:space="preserve">
<style type="text/css">
	.st0{fill-rule:evenodd;clip-rule:evenodd;fill:#4285F4;}
	.st1{fill-rule:evenodd;clip-rule:evenodd;fill:#34A853;}
	.st2{fill-rule:evenodd;clip-rule:evenodd;fill:#FBBC05;}
	.st3{fill-rule:evenodd;clip-rule:evenodd;fill:#EA4335;}
	.st4{fill:none;}
</style>
<desc>Created with Sketch.</desc>
<g id="Google-Button" sketch:type="MSPage">
	<g id="_x39_-PATCH" transform="translate(-608.000000, -160.000000)" sketch:type="MSArtboardGroup">
	</g>
	<g id="btn_google_light_normal" transform="translate(-1.000000, -1.000000)" sketch:type="MSArtboardGroup">
		<g id="logo_googleg_48dp" transform="translate(15.000000, 15.000000)" sketch:type="MSLayerGroup">
			<path id="Shape" sketch:type="MSShapeGroup" class="st0" d="M9.9,1.4c0-0.6-0.1-1.3-0.2-1.8H1.2v3.5h4.8C5.9,4.2,5.2,5.1,4.3,5.8
				V8h2.9C8.9,6.5,9.9,4.2,9.9,1.4L9.9,1.4z"/>
			<path id="Shape_1_" sketch:type="MSShapeGroup" class="st1" d="M1.2,10.2c2.4,0,4.5-0.8,6-2.2L4.3,5.8c-0.8,0.5-1.8,0.9-3,0.9
				c-2.3,0-4.3-1.6-5-3.7h-3v2.3C-5.3,8.2-2.3,10.2,1.2,10.2L1.2,10.2z"/>
			<path id="Shape_2_" sketch:type="MSShapeGroup" class="st2" d="M-3.8,2.9C-4,2.4-4.1,1.8-4.1,1.2S-4,0.1-3.8-0.5v-2.3h-3
				c-0.6,1.2-1,2.6-1,4s0.3,2.8,1,4L-3.8,2.9L-3.8,2.9z"/>
			<path id="Shape_3_" sketch:type="MSShapeGroup" class="st3" d="M1.2-4.2c1.3,0,2.5,0.5,3.4,1.3l2.6-2.6c-1.6-1.5-3.6-2.3-6-2.3
				c-3.5,0-6.6,2-8,5l3,2.3C-3.1-2.6-1.1-4.2,1.2-4.2L1.2-4.2z"/>
			<path id="Shape_4_" sketch:type="MSShapeGroup" class="st4" d="M-7.8-7.8h18v18h-18V-7.8z"/>
		</g>
		<g id="handles_square" sketch:type="MSLayerGroup">
		</g>
	</g>
</g>
</svg>
